<svg xmlns="http://www.w3.org/2000/svg" viewBox="0 0 64 64" role="img" aria-label="OWASP">
  <rect width="64" height="64" fill="none"/>
  <circle cx="32" cy="32" r="25" fill="none" stroke="#fff" stroke-width="4"/>
  <g fill="#fff">
    <ellipse cx="33.5" cy="30" rx="4" ry="15" transform="rotate(-13 33.5 30)"/>
    <ellipse cx="25" cy="28.8" rx="4.2" ry="16" transform="rotate(58 25 28.8)"/>
    <ellipse cx="27.2" cy="37.5" rx="3.7" ry="15" transform="rotate(35 27.2 37.5)"/>
    <circle cx="35.8" cy="20.5" r="4.8"/>
    <path d="M38.8 18.2c2.7-2.3 5-2.1 6.6-.8-2.4.5-4 1.8-5.4 3.9z"/>
    <path d="M30.9 22.3c-4.4-2-8.7-2.6-13.5-1.6 4.6 1.3 8.6 2.7 12.6 5.6z"/>
    <path d="M39.2 24.1c3.1-.5 5.6.4 7.8 2.2-3 .1-5.1.6-7.2 1.8z"/>
    <path d="M37.8 28.2c2.8.5 4.9 1.8 6.6 3.8-2.8-.8-4.7-1-6.8-.5z"/>
    <path d="M30.9 20.2c-2.4-2-4.1-4.3-4.8-7.1 2.5 1.5 4.3 3.3 5.5 5.9z"/>
    <path d="M34.6 16.3c.1-2.9.9-5.1 2.8-6.9.2 2.7-.2 4.8-1.4 7z"/>
  </g>
</svg>
